<svg xmlns="http://www.w3.org/2000/svg" xmlns:xlink="http://www.w3.org/1999/xlink" viewBox="0 0 332.42 41.53"><defs><style>.cls-1{fill:none;}.cls-2{fill:#717073;}.cls-3{clip-path:url(#clip-path);}</style><clipPath id="clip-path"><rect class="cls-1" width="332.42" height="41.53"/></clipPath></defs><title>Asset 1</title><g id="Layer_2" data-name="Layer 2"><g id="Layer_1-2" data-name="Layer 1"><polygon class="cls-2" points="79.5 29.9 74.66 29.9 67.96 14.46 73.57 14.46 77.17 23.68 80.71 14.46 86.13 14.46 79.5 29.9"/><g class="cls-3"><path class="cls-2" d="M27.73,29.9l-.13-1.56a6.57,6.57,0,0,1-4.85,1.95c-2.77,0-5.42-1.5-5.42-4.85a4.28,4.28,0,0,1,1.25-3.19c1.68-1.69,3.82-2,6-2h2.78v-.42c0-1.62-1.25-2.13-2.81-2.13a7.08,7.08,0,0,0-4.08,1.52l-2.17-3a9.39,9.39,0,0,1,6.54-2.32c2.55,0,4.34.57,5.58,1.82,1.69,1.69,1.82,3.73,1.82,6.44V29.9Zm-.38-6.6H25c-1.31,0-2.83.32-2.83,1.91,0,1.05.79,1.69,2,1.69a3.38,3.38,0,0,0,2.32-.77,2.81,2.81,0,0,0,.9-2.23Z"/><path class="cls-2" d="M45.16,29.9V21.13c0-1.05,0-2-.86-2.58a2.67,2.67,0,0,0-1.6-.45,3,3,0,0,0-2.07.8c-.8.8-.8,2.1-.8,3.38V29.9h-5.1V14.46h4.78l.06,1.66a6.87,6.87,0,0,1,5.07-2.26,5.47,5.47,0,0,1,4.18,1.62c1.27,1.28,1.44,3,1.44,4.76V29.9Z"/></g><polygon class="cls-2" points="60.89 14.46 58.33 14.46 58.33 9.72 53.23 9.72 53.23 14.46 51.72 14.46 51.72 18.34 53.23 18.34 53.23 29.89 58.33 29.89 58.33 18.34 60.89 18.34 60.89 14.46"/><rect class="cls-2" x="62.36" y="14.46" width="5.1" height="15.43"/><g class="cls-3"><path class="cls-2" d="M67.72,10.45A2.82,2.82,0,1,1,64.9,7.63a2.82,2.82,0,0,1,2.82,2.81"/></g><polygon class="cls-2" points="12.75 14.46 9.21 23.68 5.61 14.46 0 14.46 6.7 29.9 11.54 29.9 18.17 14.46 12.75 14.46"/><g class="cls-3"><path class="cls-2" d="M83.77,29.92a1.6,1.6,0,1,1,1.6-1.6,1.6,1.6,0,0,1-1.6,1.6m0-2.83A1.23,1.23,0,1,0,85,28.33a1.24,1.24,0,0,0-1.23-1.24m.37,2-.36-.62h-.24v.62h-.33V27.49h.55a.8.8,0,0,1,.5.09.49.49,0,0,1,.19.39.43.43,0,0,1-.32.43l.4.68ZM84,27.8a.71.71,0,0,0-.3,0h-.2v.43h.2c.24,0,.37,0,.37-.21A.19.19,0,0,0,84,27.8"/></g><rect class="cls-2" x="78.32" y="20.31" width="44.83" height="0.9" transform="translate(41.77 105.03) rotate(-66.67)"/><g class="cls-3"><path class="cls-2" d="M117.19,18.7h1.9V29.91h-1.9Zm.95-2.42A1.24,1.24,0,1,1,119.38,15a1.23,1.23,0,0,1-1.23,1.24"/><path class="cls-2" d="M130.17,29.91V23.66a3.81,3.81,0,0,0-.71-2.78,2.78,2.78,0,0,0-2.14-.73,3.28,3.28,0,0,0-2.26.9c-1,1-1,2.3-1,3.87v5h-1.9V18.7h1.81l0,1.62a4.48,4.48,0,0,1,3.87-1.95,4,4,0,0,1,3,1.21,5.33,5.33,0,0,1,1.17,3.83v6.51Z"/><path class="cls-2" d="M140,30.24a4.3,4.3,0,0,1-3-1.09c-.9-.9-1-1.71-1-3.33V20.34H133.4V18.7h2.52V15h1.9V18.7h4v1.64h-4v5.27a3.13,3.13,0,0,0,.6,2.33,2.39,2.39,0,0,0,1.8.62,5.1,5.1,0,0,0,1.62-.29l.45,1.5a5.84,5.84,0,0,1-2.33.47"/><path class="cls-2" d="M149.08,20a3.55,3.55,0,0,0-3.56,3.3h6.89a3.33,3.33,0,0,0-3.33-3.3m-3.63,4.92a3.61,3.61,0,0,0,3.68,3.68,4.79,4.79,0,0,0,3.68-1.67l1.21,1a5.69,5.69,0,0,1-4.92,2.33c-3.52,0-5.65-2.47-5.65-5.92s2.23-6,5.63-6a5,5,0,0,1,3.61,1.35c1.43,1.42,1.66,3.25,1.66,5.18Z"/><path class="cls-2" d="M162.08,20.05c-2.66,0-3.83,2-3.83,4.18,0,2.9,1.59,4.06,3.54,4.06a3.85,3.85,0,0,0,3.94-4.16c0-3-1.9-4.09-3.66-4.09m4.11,13.14a6,6,0,0,1-4.37,1.48,5.81,5.81,0,0,1-5.09-2.4L158,31.17a4.48,4.48,0,0,0,3.83,1.8,4,4,0,0,0,2.94-1,4.15,4.15,0,0,0,.93-3.16V28a5,5,0,0,1-4.13,2c-2.11,0-5.3-1.28-5.3-5.8,0-2.73,1.69-5.85,5.54-5.85a4.78,4.78,0,0,1,3.94,1.93l0-1.59h1.8V28.84a5.57,5.57,0,0,1-1.4,4.35"/><path class="cls-2" d="M176.15,20.38a3.65,3.65,0,0,0-2.57,1c-1,1-1,2.26-1,3.66v4.92h-1.9V18.7h1.8l0,2a4.83,4.83,0,0,1,4-2.28,2.53,2.53,0,0,1,.43,0v2a6,6,0,0,0-.78,0"/><path class="cls-2" d="M183.21,24.52c-1.52,0-3.71.1-3.71,2.12,0,1.35,1.09,1.88,2.28,1.88a3.76,3.76,0,0,0,2.71-1,3.64,3.64,0,0,0,.9-3Zm2.28,5.39,0-1.57a4.39,4.39,0,0,1-3.9,1.85c-2.14,0-4-1.12-4-3.59a3.2,3.2,0,0,1,.93-2.4c1.38-1.38,3.64-1.28,4.59-1.28h2.33c0-1.21-.14-1.66-.69-2.21a3.2,3.2,0,0,0-2.23-.69,4.4,4.4,0,0,0-3.35,1.62l-1.23-1a5.64,5.64,0,0,1,4.73-2.23,4.77,4.77,0,0,1,3.52,1.23c1.07,1.09,1.11,2.38,1.11,4.2v6.11Z"/><path class="cls-2" d="M195.14,30.24a4.3,4.3,0,0,1-3-1.09c-.9-.9-1-1.71-1-3.33V20.34h-2.52V18.7h2.52V15H193V18.7h4v1.64h-4v5.27a3.13,3.13,0,0,0,.59,2.33,2.39,2.39,0,0,0,1.8.62,5.09,5.09,0,0,0,1.62-.29l.45,1.5a5.86,5.86,0,0,1-2.33.47"/><path class="cls-2" d="M204.26,20a3.55,3.55,0,0,0-3.56,3.3h6.89a3.33,3.33,0,0,0-3.33-3.3m-3.63,4.92a3.6,3.6,0,0,0,3.68,3.68A4.81,4.81,0,0,0,208,26.92l1.21,1a5.7,5.7,0,0,1-4.92,2.33c-3.52,0-5.65-2.47-5.65-5.92s2.23-6,5.63-6a5.05,5.05,0,0,1,3.61,1.35c1.42,1.42,1.66,3.25,1.66,5.18Z"/><path class="cls-2" d="M217.24,20.05a3.81,3.81,0,0,0-3.8,4.16c0,3.12,1.74,4.3,3.73,4.3a3.9,3.9,0,0,0,3.92-4.28,3.82,3.82,0,0,0-3.85-4.18m3.94,9.86,0-1.76a5.23,5.23,0,0,1-4.37,2.09c-2.29,0-5.33-1.47-5.33-6a5.61,5.61,0,0,1,5.7-5.91,4.55,4.55,0,0,1,3.9,1.81V13.8h1.9V29.91Z"/><path class="cls-2" d="M237.11,20.1a3.9,3.9,0,0,0-3.92,4.28,3.84,3.84,0,1,0,7.65,0c0-3.11-1.74-4.3-3.73-4.3m0,10.14a4.37,4.37,0,0,1-3.85-1.78v5.87h-1.9V18.7h1.85l0,1.64a5,5,0,0,1,4.2-2c2.33,0,5.39,1.4,5.39,5.94a5.65,5.65,0,0,1-5.75,5.94"/><path class="cls-2" d="M250.39,24.52c-1.52,0-3.71.1-3.71,2.12,0,1.35,1.1,1.88,2.28,1.88a3.77,3.77,0,0,0,2.71-1,3.65,3.65,0,0,0,.9-3Zm2.28,5.39,0-1.57a4.39,4.39,0,0,1-3.9,1.85c-2.14,0-4-1.12-4-3.59a3.19,3.19,0,0,1,.93-2.4c1.38-1.38,3.63-1.28,4.58-1.28h2.33c0-1.21-.14-1.66-.69-2.21a3.2,3.2,0,0,0-2.23-.69,4.4,4.4,0,0,0-3.35,1.62l-1.24-1a5.65,5.65,0,0,1,4.73-2.23,4.76,4.76,0,0,1,3.51,1.23c1.07,1.09,1.12,2.38,1.12,4.2v6.11Z"/><path class="cls-2" d="M261.63,32.34a3.4,3.4,0,0,1-3.38,2.33,4.15,4.15,0,0,1-1.64-.33l.5-1.52a2.55,2.55,0,0,0,1,.17c1.12,0,1.64-.69,2.07-1.71l.57-1.36L255.9,18.7h2l3.78,9,3.85-9h2Z"/><path class="cls-2" d="M283.76,29.91v-6c0-1.5-.12-2.47-.69-3.09a2.37,2.37,0,0,0-1.85-.66,2.72,2.72,0,0,0-2,.79,3.66,3.66,0,0,0-.85,2.71v6.27h-1.9v-6c0-1.5-.12-2.47-.69-3.09a2.38,2.38,0,0,0-1.85-.66,2.7,2.7,0,0,0-2,.79,3.67,3.67,0,0,0-.86,2.71v6.27h-1.9V18.7H271l0,1.45a4,4,0,0,1,3.32-1.78,3.71,3.71,0,0,1,3.54,2.07,4.48,4.48,0,0,1,3.76-2.07,4.08,4.08,0,0,1,2.88,1.11,5.38,5.38,0,0,1,1.14,4v6.44Z"/><path class="cls-2" d="M293.62,20a3.55,3.55,0,0,0-3.56,3.3h6.89a3.32,3.32,0,0,0-3.32-3.3M290,24.9a3.61,3.61,0,0,0,3.68,3.68,4.79,4.79,0,0,0,3.68-1.67l1.22,1a5.69,5.69,0,0,1-4.92,2.33c-3.52,0-5.65-2.47-5.65-5.92s2.23-6,5.63-6a5,5,0,0,1,3.61,1.35c1.42,1.42,1.66,3.25,1.66,5.18Z"/><path class="cls-2" d="M309.4,29.91V23.66a3.82,3.82,0,0,0-.71-2.78,2.79,2.79,0,0,0-2.14-.73,3.27,3.27,0,0,0-2.26.9c-1,1-1,2.3-1,3.87v5h-1.9V18.7h1.81l0,1.62a4.48,4.48,0,0,1,3.87-1.95,4,4,0,0,1,3,1.21,5.32,5.32,0,0,1,1.16,3.83v6.51Z"/><path class="cls-2" d="M319.19,30.24a4.3,4.3,0,0,1-3-1.09c-.9-.9-1-1.71-1-3.33V20.34h-2.52V18.7h2.52V15h1.9V18.7h4v1.64h-4v5.27a3.13,3.13,0,0,0,.59,2.33,2.39,2.39,0,0,0,1.8.62,5.11,5.11,0,0,0,1.62-.29l.45,1.5a5.87,5.87,0,0,1-2.33.47"/><path class="cls-2" d="M327.51,30.24c-3.3,0-4.59-1.78-4.75-2l1.17-1.12a4.58,4.58,0,0,0,3.66,1.54c1.52,0,2.95-.52,2.95-1.76,0-3-7.56-.47-7.56-5.25,0-1.71,1.69-3.28,4.54-3.28,3.35,0,4.44,1.73,4.66,2l-1.24,1A4.11,4.11,0,0,0,327.51,20c-1.33,0-2.64.52-2.64,1.66,0,2.95,7.55.29,7.55,5.28,0,1.71-1.62,3.35-4.92,3.35"/></g></g></g></svg>